FILE "Tomb Raider II - Starring Lara Croft (USA) (Track 01).bin" BINARY
  TRACK 01 MODE2/2352
    INDEX 01 00:00:00
  TRACK 02 AUDIO
    INDEX 00 23:20:44
    INDEX 01 23:22:44
  TRACK 03 AUDIO
    INDEX 00 24:48:03
    INDEX 01 24:50:03
  TRACK 04 AUDIO
    INDEX 00 26:44:28
    INDEX 01 26:46:28
  TRACK 05 AUDIO
    INDEX 00 29:02:13
    INDEX 01 29:04:13
  TRACK 06 AUDIO
    INDEX 00 29:11:73
    INDEX 01 29:13:73
  TRACK 07 AUDIO
    INDEX 00 29:20:70
    INDEX 01 29:22:70
  TRACK 08 AUDIO
    INDEX 00 29:27:71
    INDEX 01 29:29:71
  TRACK 09 AUDIO
    INDEX 00 29:34:73
    INDEX 01 29:36:73
  TRACK 10 AUDIO
    INDEX 00 29:42:73
    INDEX 01 29:44:73
  TRACK 11 AUDIO
    INDEX 00 29:56:22
    INDEX 01 29:58:22
  TRACK 12 AUDIO
    INDEX 00 30:14:07
    INDEX 01 30:16:07
  TRACK 13 AUDIO
    INDEX 00 30:24:45
    INDEX 01 30:26:45
  TRACK 14 AUDIO
    INDEX 00 30:35:54
    INDEX 01 30:37:54
  TRACK 15 AUDIO
    INDEX 00 30:42:55
    INDEX 01 30:44:55
  TRACK 16 AUDIO
    INDEX 00 30:49:56
    INDEX 01 30:51:56
  TRACK 17 AUDIO
    INDEX 00 30:56:58
    INDEX 01 30:58:58
  TRACK 18 AUDIO
    INDEX 00 31:07:60
    INDEX 01 31:09:60
  TRACK 19 AUDIO
    INDEX 00 31:14:61
    INDEX 01 31:16:61
  TRACK 20 AUDIO
    INDEX 00 31:21:62
    INDEX 01 31:23:62
  TRACK 21 AUDIO
    INDEX 00 31:28:63
    INDEX 01 31:30:63
  TRACK 22 AUDIO
    INDEX 00 31:35:64
    INDEX 01 31:37:64
  TRACK 23 AUDIO
    INDEX 00 31:42:65
    INDEX 01 31:44:65
  TRACK 24 AUDIO
    INDEX 00 32:01:39
    INDEX 01 32:03:39
  TRACK 25 AUDIO
    INDEX 00 32:12:40
    INDEX 01 32:14:40
  TRACK 26 AUDIO
    INDEX 00 32:19:41
    INDEX 01 32:21:41
  TRACK 27 AUDIO
    INDEX 00 33:13:31
    INDEX 01 33:15:31
  TRACK 28 AUDIO
    INDEX 00 35:13:42
    INDEX 01 35:15:42
  TRACK 29 AUDIO
    INDEX 00 37:13:25
    INDEX 01 37:15:25
  TRACK 30 AUDIO
    INDEX 00 40:01:59
    INDEX 01 40:03:59
  TRACK 31 AUDIO
    INDEX 00 43:07:44
    INDEX 01 43:09:44
  TRACK 32 AUDIO
    INDEX 00 43:17:26
    INDEX 01 43:19:26
  TRACK 33 AUDIO
    INDEX 00 43:23:74
    INDEX 01 43:25:74
  TRACK 34 AUDIO
    INDEX 00 43:42:34
    INDEX 01 43:44:34
  TRACK 35 AUDIO
    INDEX 00 44:38:68
    INDEX 01 44:40:68
  TRACK 36 AUDIO
    INDEX 00 45:00:59
    INDEX 01 45:02:59
  TRACK 37 AUDIO
    INDEX 00 47:41:53
    INDEX 01 47:43:53
  TRACK 38 AUDIO
    INDEX 00 47:55:66
    INDEX 01 47:57:66
  TRACK 39 AUDIO
    INDEX 00 48:09:23
    INDEX 01 48:11:23
  TRACK 40 AUDIO
    INDEX 00 48:26:11
    INDEX 01 48:28:11
  TRACK 41 AUDIO
    INDEX 00 48:45:74
    INDEX 01 48:47:74
  TRACK 42 AUDIO
    INDEX 00 49:47:05
    INDEX 01 49:49:05
  TRACK 43 AUDIO
    INDEX 00 50:22:35
    INDEX 01 50:24:35
  TRACK 44 AUDIO
    INDEX 00 50:28:64
    INDEX 01 50:30:64
  TRACK 45 AUDIO
    INDEX 00 50:44:63
    INDEX 01 50:46:63
  TRACK 46 AUDIO
    INDEX 00 50:56:61
    INDEX 01 50:58:61
  TRACK 47 AUDIO
    INDEX 00 51:11:13
    INDEX 01 51:13:13
  TRACK 48 AUDIO
    INDEX 00 51:21:46
    INDEX 01 51:23:46
  TRACK 49 AUDIO
    INDEX 00 54:06:54
    INDEX 01 54:08:54
  TRACK 50 AUDIO
    INDEX 00 55:20:04
    INDEX 01 55:22:04
  TRACK 51 AUDIO
    INDEX 00 55:29:51
    INDEX 01 55:31:51
  TRACK 52 AUDIO
    INDEX 00 56:13:59
    INDEX 01 56:15:59
  TRACK 53 AUDIO
    INDEX 00 56:25:44
    INDEX 01 56:27:44
  TRACK 54 AUDIO
    INDEX 00 57:16:50
    INDEX 01 57:18:50
  TRACK 55 AUDIO
    INDEX 00 60:48:19
    INDEX 01 60:50:19
  TRACK 56 AUDIO
    INDEX 00 64:20:01
    INDEX 01 64:22:01
  TRACK 57 AUDIO
    INDEX 00 66:07:54
    INDEX 01 66:09:54
  TRACK 58 AUDIO
    INDEX 00 66:33:24
    INDEX 01 66:35:24
  TRACK 59 AUDIO
    INDEX 00 66:56:73
    INDEX 01 66:58:73
  TRACK 60 AUDIO
    INDEX 00 67:16:52
    INDEX 01 67:18:52
  TRACK 61 AUDIO
    INDEX 00 70:05:24
    INDEX 01 70:07:24
REM LEADOUT 70:25:03
